<?xml version="1.0" standalone="no"?>
<svg xmlns="http://www.w3.org/2000/svg" version="1.1" xmlns:xlink="http://www.w3.org/1999/xlink" width="512" height="512" x="0" y="0" viewBox="0 0 512 512" style="enable-background:new 0 0 512 512" xml:space="preserve" class=""><g><path fill="#2d5d0f" d="M488.282 172.099c-78.885-26.804-154.94-45.413-232.282 5.592-77.342-51.005-153.397-32.396-232.282-5.592C14.023 175.393 7.5 184.518 7.5 194.777v286.806c0 15.459 15.111 26.418 29.797 21.587 56.735-18.662 112.817-39.664 168.363-24.191a64.94 64.94 0 0 1 29.142 17.32c9.865 10.166 32.055 10.8 42.131.803 8.819-8.749 19.424-15.523 31.438-18.681 54.882-14.425 110.289 6.314 166.332 24.749 14.685 4.83 29.796-6.128 29.796-21.588V194.777c.001-10.259-6.522-19.384-16.217-22.678z" opacity="1" data-original="#fe7ab6" class=""/><path fill="#b3c7a7" d="M460.487 173.928c-69.446-23.592-136.4-39.972-204.487 4.922-68.088-44.894-135.042-28.514-204.487-4.922-8.535 2.9-14.277 10.932-14.277 19.962v243.642c0 13.63 13.329 23.245 26.277 18.986 61.539-20.242 122.207-33.038 182.195 2.394a20.21 20.21 0 0 0 20.587 0c59.987-35.431 120.655-22.635 182.195-2.394 12.947 4.259 26.277-5.356 26.277-18.986V193.89c-.002-9.03-5.744-17.062-14.28-19.962z" opacity="1" data-original="#cfdbe4" class=""/><path fill="#d2ffb5" d="M474.765 415.432c-74.104-25.825-146.916-49.273-218.765 0V128.806c68.087-44.894 135.042-28.514 204.487-4.922 8.535 2.9 14.277 10.932 14.277 19.962v271.586z" opacity="1" data-original="#f7f9fa" class=""/><path fill="#baed9a" d="M460.487 123.884c-44.197-15.015-87.385-27.108-130.499-22.344 29.89 2.986 59.953 11.967 90.499 22.344 8.535 2.9 14.277 10.932 14.277 19.962v258.25c13.293 4.093 26.625 8.676 40 13.337V143.845c.001-9.03-5.741-17.062-14.277-19.961z" opacity="1" data-original="#ecf1f5" class=""/><path fill="#d2ffb5" d="M37.235 415.432c74.104-25.825 146.916-49.273 218.765 0V128.806c-68.087-44.894-135.042-28.514-204.487-4.922-8.535 2.9-14.277 10.932-14.277 19.962v271.586z" opacity="1" data-original="#f7f9fa" class=""/><path fill="#baed9a" d="M142.012 101.539c24.629 2.721 49.234 10.944 73.988 27.266V395.1c13.368 4.583 26.7 11.212 40 20.333V128.806c-38.139-25.148-75.923-31.069-113.988-27.267z" opacity="1" data-original="#ecf1f5" class=""/><g fill="#ffd15b"><path d="m259.651 9.488 8.495 15.532a4.165 4.165 0 0 0 1.654 1.654l15.532 8.494c2.886 1.578 2.886 5.723 0 7.302L269.8 50.965a4.165 4.165 0 0 0-1.654 1.654l-8.495 15.532c-1.578 2.886-5.723 2.886-7.302 0l-8.494-15.532a4.165 4.165 0 0 0-1.654-1.654l-15.532-8.494c-2.886-1.578-2.886-5.723 0-7.302l15.532-8.494a4.165 4.165 0 0 0 1.654-1.654l8.494-15.532c1.578-2.887 5.723-2.887 7.302-.001zM369.033 163.006l8.495 15.532a4.165 4.165 0 0 0 1.654 1.654l15.532 8.494c2.886 1.578 2.886 5.723 0 7.302l-15.532 8.495a4.165 4.165 0 0 0-1.654 1.654l-8.495 15.532c-1.578 2.886-5.723 2.886-7.302 0l-8.494-15.532a4.165 4.165 0 0 0-1.654-1.654l-15.532-8.495c-2.886-1.578-2.886-5.723 0-7.302l15.532-8.494a4.165 4.165 0 0 0 1.654-1.654l8.494-15.532c1.579-2.886 5.724-2.886 7.302 0zM150.269 276.85l8.495 15.532a4.165 4.165 0 0 0 1.654 1.654l15.532 8.495c2.886 1.578 2.886 5.723 0 7.302l-15.532 8.494a4.165 4.165 0 0 0-1.654 1.654l-8.495 15.532c-1.578 2.886-5.723 2.886-7.302 0l-8.494-15.532a4.165 4.165 0 0 0-1.654-1.654l-15.532-8.494c-2.886-1.578-2.886-5.723 0-7.302l15.532-8.495a4.165 4.165 0 0 0 1.654-1.654l8.494-15.532c1.578-2.886 5.723-2.886 7.302 0z" fill="#2d5d0f" opacity="1" data-original="#ffd15b" class=""/></g><path d="M490.695 164.997c-2.944-1-5.736-1.939-8.431-2.834v-18.319c0-12.252-7.782-23.128-19.365-27.062-33.496-11.38-69.381-22.116-104.849-23.613-37.33-1.578-70.763 7.171-102.051 26.725-41.681-26.05-87.074-32.887-142.387-21.533a7.5 7.5 0 1 0 3.017 14.693c52.205-10.716 93.068-4.605 131.87 19.841v268.923c-69.456-40.351-140.171-18.935-203.765 3.067v-261.04c0-5.824 3.693-10.992 9.19-12.859 13.133-4.462 23.825-7.856 33.648-10.683a7.501 7.501 0 0 0-4.147-14.416c-10.056 2.894-20.963 6.355-34.325 10.896-11.583 3.935-19.365 14.811-19.365 27.062v18.319C14.06 167.37 0 176.055 0 194.777v286.806c0 20.128 20.276 35.083 39.64 28.712 51.013-16.774 143.801-56.152 189.78-8.772 12.873 13.267 39.522 14.074 52.795.904 28.67-28.438 77.042-23.469 112.947-15.409 4.04.912 8.053-1.633 8.961-5.675a7.5 7.5 0 0 0-5.675-8.96c-41.326-9.279-94.137-13.004-126.797 19.396-7.261 7.203-24.239 6.748-31.466-.701-51.235-52.801-147.586-14.004-205.231 4.97C25.25 499.234 15 491.791 15 481.583V194.777c0-9.361 6.798-14.122 14.735-16.797v259.551c0 18.349 18.491 31.906 36.12 26.111 26.743-8.797 58.308-17.97 89.657-19.312 31.848-1.363 60.103 5.519 86.38 21.039 8.624 5.094 19.591 5.093 28.216 0 26.278-15.521 54.538-22.394 86.38-21.039 31.35 1.343 62.915 10.516 89.657 19.312 17.628 5.802 36.12-7.764 36.12-26.11V177.981c7.938 2.673 14.735 7.437 14.735 16.797v286.806c0 10.206-10.25 17.651-19.953 14.464-16.105-5.298-32.152-10.788-48.397-15.649a7.5 7.5 0 0 0-4.3 14.371c16.115 4.822 32.034 10.27 48.01 15.527 19.365 6.365 39.64-8.581 39.64-28.713V194.777c0-13.483-8.562-25.45-21.305-29.78zm-32.62-34.012c5.497 1.867 9.19 7.035 9.19 12.859v261.04c-37.536-12.986-77.543-25.768-118.317-25.768-28.307 0-56.986 6.163-85.448 22.7v-268.92c64.794-40.735 129.022-24.18 194.575-1.911zm4.027 316.66c-3.293 2.384-7.401 3.021-11.27 1.748-56.924-18.722-123.118-35.471-188.353 3.061a12.738 12.738 0 0 1-12.958 0c-65.237-38.531-131.429-21.784-188.353-3.06-7.976 2.619-16.433-3.449-16.433-11.862v-16.765c36.886-12.778 70.343-23.367 103.329-26.02 39.393-3.169 72.342 5.372 103.694 26.872 2.632 1.783 6.061 1.722 8.583-.068 31.322-21.451 64.243-29.964 103.595-26.804 32.986 2.653 66.443 13.242 103.329 26.02v16.765c0 4.052-1.882 7.738-5.163 10.113z" fill="#000000" opacity="1" data-original="#000000" class=""/><path d="M219.181 145.276c-17.661-8.271-36.197-12.29-56.668-12.29-23.87 0-50.065 5.192-87.591 17.362a7.499 7.499 0 0 0-4.821 9.447c1.191 3.672 5.81 6.004 9.448 4.82 35.945-11.656 60.756-16.63 82.964-16.63 18.225 0 34.68 3.557 50.307 10.874a7.5 7.5 0 1 0 6.361-13.583zM219.181 181.548c-17.661-8.271-36.197-12.29-56.668-12.29-23.87 0-50.065 5.192-87.591 17.362a7.499 7.499 0 0 0-4.821 9.447c1.191 3.672 5.81 6.004 9.448 4.82 35.945-11.656 60.756-16.63 82.964-16.63 18.225 0 34.68 3.557 50.307 10.874a7.499 7.499 0 1 0 6.361-13.583zM222.792 227.792a7.501 7.501 0 0 0-3.612-9.973c-17.661-8.271-36.197-12.29-56.668-12.29-23.87 0-50.065 5.192-87.591 17.362a7.499 7.499 0 0 0-4.821 9.447c1.191 3.672 5.81 6.004 9.448 4.82 35.945-11.656 60.756-16.63 82.964-16.63 18.225 0 34.68 3.557 50.307 10.874a7.499 7.499 0 0 0 9.973-3.61zM299.181 288.73c15.626-7.317 32.082-10.874 50.307-10.874 22.208 0 47.019 4.974 82.964 16.63 3.638 1.183 8.257-1.148 9.448-4.82a7.498 7.498 0 0 0-4.821-9.447c-37.526-12.17-63.721-17.362-87.591-17.362-20.471 0-39.007 4.02-56.668 12.29a7.501 7.501 0 0 0-3.612 9.973 7.502 7.502 0 0 0 9.973 3.61zM299.181 325.001c15.626-7.317 32.082-10.874 50.307-10.874 22.208 0 47.019 4.974 82.964 16.63 3.638 1.183 8.257-1.148 9.448-4.82a7.498 7.498 0 0 0-4.821-9.447c-37.526-12.17-63.721-17.362-87.591-17.362-20.471 0-39.007 4.02-56.668 12.29a7.5 7.5 0 1 0 6.361 13.583zM299.181 361.273c15.626-7.317 32.082-10.874 50.307-10.874 22.208 0 47.019 4.974 82.964 16.63 3.638 1.183 8.257-1.148 9.448-4.82a7.498 7.498 0 0 0-4.821-9.447c-37.526-12.17-63.721-17.362-87.591-17.362-20.471 0-39.007 4.02-56.668 12.29a7.501 7.501 0 0 0-3.612 9.973 7.502 7.502 0 0 0 9.973 3.61zM223.07 49.05l14.674 8.026 8.025 14.673c4.307 7.876 16.142 7.897 20.462 0l8.025-14.673 14.673-8.026c7.947-4.345 7.947-16.117 0-20.462l-14.673-8.025-8.025-14.674c-4.743-7.088-15.911-8.322-20.462 0l-8.025 14.674-14.673 8.025c-7.947 4.345-7.947 16.117-.001 20.462zm22.729-15.796a11.639 11.639 0 0 0 4.636-4.636L256 18.442l5.565 10.176a11.645 11.645 0 0 0 4.636 4.636l10.175 5.565-10.175 5.565a11.636 11.636 0 0 0-4.636 4.635L256 59.195l-5.565-10.176a11.643 11.643 0 0 0-4.636-4.635l-10.176-5.565zM332.453 202.568l14.673 8.025 8.026 14.674c4.346 7.945 16.116 7.944 20.461-.001l8.025-14.673 14.674-8.025c7.945-4.347 7.945-16.117-.001-20.463l-14.673-8.025-8.025-14.673c-4.306-7.876-16.143-7.899-20.462 0l-8.025 14.673-14.674 8.025c-7.946 4.348-7.945 16.117.001 20.463zm22.728-15.796a11.639 11.639 0 0 0 4.636-4.636l5.565-10.175 5.565 10.175a11.645 11.645 0 0 0 4.636 4.636l10.176 5.565-10.176 5.565a11.639 11.639 0 0 0-4.636 4.636l-5.565 10.175-5.565-10.175a11.645 11.645 0 0 0-4.636-4.636l-10.176-5.565zM164.875 287.926l-8.026-14.674c-4.345-7.946-16.118-7.948-20.462 0l-8.025 14.673-14.674 8.025c-7.946 4.345-7.946 16.116 0 20.462l14.674 8.026 8.025 14.673c4.307 7.876 16.142 7.897 20.462 0l8.026-14.674 14.672-8.025c7.947-4.345 7.947-16.117 0-20.462zm-8.057 23.821a11.63 11.63 0 0 0-4.635 4.636l-5.565 10.175-5.565-10.175a11.645 11.645 0 0 0-4.636-4.636l-10.176-5.565 10.176-5.565a11.639 11.639 0 0 0 4.636-4.636l5.565-10.175 5.565 10.175a11.645 11.645 0 0 0 4.636 4.636l10.176 5.565z" fill="#000000" opacity="1" data-original="#000000" class=""/></g></svg>