<svg width="512" height="512" viewBox="0 0 512 512" fill="none" xmlns="http://www.w3.org/2000/svg">
<g clip-path="url(#clip0_742_416)">
<path fill-rule="evenodd" clip-rule="evenodd" d="M256 136.123L320.014 142.279L378.815 161.531L428.818 191.427L466.391 230.112L489.244 274.819L497.958 322.471L490.896 370.304L467.66 415.134L429.512 453.804L379.182 483.674L319.89 502.466L256 508.818L192.364 502.072L133.797 482.97L83.8706 453.23L46.4584 414.627L23.2271 370.065L14.0423 322.471L20.8662 274.612L44.1285 229.755L82.1414 190.992L132.332 160.915L191.857 142.082L256 136.123ZM191.727 97.5619L132.083 116.395L81.7945 146.472L43.704 185.235L20.3951 230.092L13.5557 277.951L22.7612 325.546L46.039 370.107L83.5289 408.71L133.553 438.45L192.235 457.552L256 464.298L320.019 457.946L379.426 439.154L429.859 409.284L468.084 370.614L491.367 325.784L498.445 277.951L489.71 230.299L466.811 185.592L429.165 146.907L379.058 117.011L320.144 97.7587L256 91.6035L191.727 97.5619Z" fill="url(#paint0_linear_742_416)"/>
<path opacity="0.97" d="M256 91.6035L320.143 97.7587L320.014 142.279L256 136.123V91.6035Z" fill="#F0AD1F"/>
<path opacity="0.97" d="M320.143 97.7598L379.057 117.012L378.814 161.532L320.014 142.28L320.143 97.7598Z" fill="#E89D0A"/>
<path opacity="0.97" d="M379.058 117.012L429.165 146.907L428.818 191.427L378.814 161.532L379.058 117.012Z" fill="#DE8C00"/>
<path opacity="0.97" d="M429.165 146.906L466.811 185.592L466.391 230.112L428.818 191.426L429.165 146.906Z" fill="#D97E00"/>
<path opacity="0.97" d="M466.81 185.592L489.71 230.298L489.244 274.818L466.391 230.112L466.81 185.592Z" fill="#E9A221"/>
<path opacity="0.97" d="M489.71 230.299L498.444 277.951L497.958 322.471L489.244 274.819L489.71 230.299Z" fill="#EFB132"/>
<path opacity="0.97" d="M498.444 277.951L491.367 325.784L490.896 370.304L497.958 322.471L498.444 277.951Z" fill="#D47A00"/>
<path opacity="0.97" d="M491.367 325.783L468.084 370.614L467.659 415.134L490.896 370.303L491.367 325.783Z" fill="#C86E00"/>
<path opacity="0.97" d="M468.084 370.615L429.859 409.285L429.512 453.805L467.659 415.135L468.084 370.615Z" fill="#DC8C00"/>
<path opacity="0.97" d="M429.859 409.285L379.425 439.155L379.182 483.675L429.512 453.805L429.859 409.285Z" fill="#EB9E0E"/>
<path opacity="0.97" d="M379.425 439.154L320.019 457.946L319.89 502.466L379.182 483.674L379.425 439.154Z" fill="#F0B42D"/>
<path opacity="0.97" d="M320.019 457.945L256 464.297V508.817L319.89 502.465L320.019 457.945Z" fill="#D78100"/>
<path opacity="0.97" d="M256 464.298L192.234 457.553L192.364 502.073L256 508.818V464.298Z" fill="#D07400"/>
<path opacity="0.97" d="M192.235 457.553L133.554 438.451L133.797 482.971L192.364 502.073L192.235 457.553Z" fill="#E28D00"/>
<path opacity="0.97" d="M133.553 438.451L83.5283 408.711L83.87 453.231L133.796 482.971L133.553 438.451Z" fill="#ECAA1F"/>
<path opacity="0.97" d="M83.529 408.71L46.0391 370.107L46.4584 414.627L83.8707 453.23L83.529 408.71Z" fill="#F1BA39"/>
<path opacity="0.97" d="M46.0386 370.108L22.7607 325.547L23.2267 370.067L46.4579 414.628L46.0386 370.108Z" fill="#D57900"/>
<path opacity="0.97" d="M22.7612 325.546L13.5557 277.951L14.0423 322.471L23.2271 370.066L22.7612 325.546Z" fill="#C86A00"/>
<path opacity="0.97" d="M13.5557 277.951L20.3951 230.092L20.8662 274.612L14.0423 322.471L13.5557 277.951Z" fill="#DB8400"/>
<path opacity="0.97" d="M20.3945 230.093L43.7034 185.236L44.128 229.756L20.8657 274.613L20.3945 230.093Z" fill="#E99D14"/>
<path opacity="0.97" d="M43.7041 185.236L81.7946 146.473L82.1415 190.993L44.1287 229.756L43.7041 185.236Z" fill="#F0B42C"/>
<path opacity="0.97" d="M81.7939 146.471L132.083 116.395L132.331 160.914L82.1408 190.991L81.7939 146.471Z" fill="#DF9300"/>
<path opacity="0.97" d="M132.083 116.395L191.727 97.5625L191.857 142.082L132.332 160.915L132.083 116.395Z" fill="#D57D00"/>
<path opacity="0.97" d="M191.728 97.5619L256 91.6035V136.123L191.857 142.082L191.728 97.5619Z" fill="#CB7400"/>
<path fill-rule="evenodd" clip-rule="evenodd" d="M256 91.6035L320.144 97.7587L379.058 117.011L429.165 146.907L466.811 185.592L489.71 230.299L498.445 277.951L491.367 325.784L468.084 370.614L429.859 409.284L379.426 439.154L320.019 457.946L256 464.298L192.235 457.552L133.553 438.45L83.5289 408.71L46.039 370.107L22.7612 325.546L13.5557 277.951L20.3951 230.092L43.704 185.235L81.7945 146.472L132.083 116.395L191.727 97.5619L256 91.6035ZM201.694 126.557L151.291 142.47L108.795 167.888L76.6119 200.641L56.9168 238.545L51.1336 278.986L58.9153 319.204L78.5793 356.854L110.26 389.478L152.534 414.606L202.118 430.752L256 436.447L310.094 431.084L360.295 415.201L402.91 389.965L435.213 357.284L454.887 319.406L460.867 278.986L453.484 238.721L434.136 200.941L402.325 168.25L359.984 142.993L310.203 126.723L256 121.525L201.694 126.557Z" fill="#EFDE88"/>
<path opacity="0.96" d="M256 91.6035L320.143 97.7587L310.203 126.723L256 121.525V91.6035Z" fill="#F2DF8A"/>
<path opacity="0.96" d="M320.144 97.7598L379.058 117.012L359.984 142.994L310.203 126.724L320.144 97.7598Z" fill="#F1D86E"/>
<path opacity="0.96" d="M379.058 117.012L429.165 146.907L402.326 168.251L359.984 142.994L379.058 117.012Z" fill="#EFD565"/>
<path opacity="0.96" d="M429.165 146.906L466.81 185.592L434.135 200.941L402.325 168.25L429.165 146.906Z" fill="#EED766"/>
<path opacity="0.96" d="M466.811 185.592L489.711 230.298L453.484 238.721L434.136 200.941L466.811 185.592Z" fill="#F0E097"/>
<path opacity="0.96" d="M489.71 230.299L498.444 277.951L460.866 278.986L453.483 238.721L489.71 230.299Z" fill="#F2DF82"/>
<path opacity="0.96" d="M498.445 277.951L491.367 325.784L454.887 319.406L460.867 278.987L498.445 277.951Z" fill="#ECDC8E"/>
<path opacity="0.96" d="M491.367 325.784L468.084 370.615L435.212 357.284L454.886 319.406L491.367 325.784Z" fill="#ECE294"/>
<path opacity="0.96" d="M468.084 370.615L429.859 409.286L402.91 389.966L435.212 357.285L468.084 370.615Z" fill="#F0DF83"/>
<path opacity="0.96" d="M429.859 409.284L379.426 439.154L360.295 415.201L402.911 389.965L429.859 409.284Z" fill="#F3DC76"/>
<path opacity="0.96" d="M379.425 439.154L320.019 457.946L310.094 431.083L360.294 415.201L379.425 439.154Z" fill="#F0DB75"/>
<path opacity="0.96" d="M320.019 457.946L256 464.298V436.447L310.094 431.084L320.019 457.946Z" fill="#EAD68D"/>
<path opacity="0.96" d="M256 464.297L192.234 457.552L202.118 430.752L256 436.446V464.297Z" fill="#ECDD92"/>
<path opacity="0.96" d="M192.235 457.554L133.554 438.451L152.534 414.607L202.119 430.754L192.235 457.554Z" fill="#F1DE83"/>
<path opacity="0.96" d="M133.553 438.45L83.5283 408.71L110.26 389.479L152.533 414.606L133.553 438.45Z" fill="#F2DA74"/>
<path opacity="0.96" d="M83.529 408.711L46.0391 370.108L78.5794 356.855L110.26 389.479L83.529 408.711Z" fill="#EFDA79"/>
<path opacity="0.96" d="M46.0386 370.108L22.7607 325.547L58.9149 319.205L78.5789 356.855L46.0386 370.108Z" fill="#E9D88F"/>
<path opacity="0.96" d="M22.7612 325.546L13.5557 277.951L51.1336 278.987L58.9153 319.205L22.7612 325.546Z" fill="#EBDF93"/>
<path opacity="0.96" d="M13.5557 277.951L20.3951 230.092L56.9168 238.545L51.1336 278.986L13.5557 277.951Z" fill="#F0DE83"/>
<path opacity="0.96" d="M20.3945 230.093L43.7034 185.236L76.6113 200.642L56.9163 238.546L20.3945 230.093Z" fill="#F3DA71"/>
<path opacity="0.96" d="M43.7041 185.236L81.7946 146.473L108.795 167.889L76.612 200.642L43.7041 185.236Z" fill="#F1D764"/>
<path opacity="0.96" d="M81.7939 146.471L132.083 116.395L151.291 142.47L108.794 167.888L81.7939 146.471Z" fill="#EDD97D"/>
<path opacity="0.96" d="M132.083 116.395L191.727 97.5625L201.694 126.557L151.291 142.471L132.083 116.395Z" fill="#ECE092"/>
<path opacity="0.96" d="M191.728 97.5619L256 91.6035V121.525L201.694 126.557L191.728 97.5619Z" fill="#F0E08A"/>
<path opacity="0.8" d="M256 91.6035L320.144 97.7587L379.058 117.011L429.165 146.907L466.811 185.592L489.71 230.299L498.445 277.951L491.367 325.784L468.084 370.614L429.859 409.284L379.426 439.154L320.019 457.946L256 464.298L192.235 457.552L133.553 438.45L83.5289 408.71L46.039 370.107L22.7612 325.546L13.5557 277.951L20.3951 230.092L43.704 185.235L81.7945 146.472L132.083 116.395L191.727 97.5619L256 91.6035Z" stroke="#FFF7D3" stroke-width="2.4" stroke-linejoin="round"/>
<path opacity="0.72" d="M256 121.525L310.203 126.723L359.984 142.993L402.326 168.251L434.136 200.942L453.484 238.722L460.867 278.986L454.887 319.406L435.213 357.284L402.911 389.965L360.295 415.202L310.094 431.084L256 436.447L202.119 430.753L152.534 414.606L110.26 389.479L78.5795 356.855L58.9155 319.204L51.1338 278.986L56.917 238.546L76.612 200.641L108.795 167.888L151.292 142.47L201.694 126.557L256 121.525Z" stroke="#FFF3C8" stroke-width="1.8" stroke-linejoin="round"/>
<path fill-rule="evenodd" clip-rule="evenodd" d="M256 121.525L310.203 126.723L359.984 142.993L402.326 168.251L434.136 200.942L453.484 238.722L460.867 278.986L454.887 319.406L435.213 357.284L402.911 389.965L360.295 415.202L310.094 431.084L256 436.447L202.119 430.753L152.534 414.606L110.26 389.479L78.5795 356.855L58.9155 319.204L51.1338 278.986L56.917 238.546L76.612 200.641L108.795 167.888L151.292 142.47L201.694 126.557L256 121.525ZM204.676 137.729L157.044 152.695L116.887 176.59L86.4699 207.392L67.857 243.029L62.3947 281.057L69.7467 318.873L88.3338 354.277L118.27 384.949L158.219 408.581L205.08 423.759L256 429.117L307.123 424.07L354.564 409.14L394.839 385.404L425.36 354.681L443.952 319.065L449.606 281.057L442.632 243.199L424.345 207.677L394.285 176.937L354.268 153.186L307.221 137.889L256 132.997L204.676 137.729Z" fill="url(#paint1_linear_742_416)"/>
<path opacity="0.72" d="M256 132.998L307.221 137.89L354.268 153.187L394.285 176.938L424.345 207.678L442.632 243.2L449.606 281.058L443.952 319.066L425.36 354.682L394.839 385.405L354.563 409.141L307.122 424.071L256 429.118L205.08 423.76L158.219 408.582L118.27 384.95L88.3336 354.278L69.7465 318.874L62.3945 281.058L67.8567 243.03L86.4697 207.393L116.887 176.591L157.044 152.696L204.676 137.73L256 132.998Z" stroke="#EFAA1D" stroke-width="2.2" stroke-linejoin="round"/>
<path opacity="0.45" d="M256 134.1L306.843 138.955L353.538 154.139L393.254 177.714L423.092 208.22L441.239 243.479L448.161 281.057L442.554 318.78L424.102 354.132L393.803 384.628L353.828 408.187L306.739 423.003L256 428.014L205.463 422.692L158.949 407.628L119.295 384.172L89.5812 353.733L71.1339 318.593L63.8389 281.057L69.2597 243.313L87.7328 207.941L117.923 177.372L157.784 153.652L205.059 138.8L256 134.1Z" stroke="#FFF0C2" stroke-width="1.1" stroke-linejoin="round"/>
<path d="M256 132.998L307.221 137.89L354.268 153.187L394.285 176.938L424.345 207.678L442.632 243.2L449.606 281.058L443.952 319.066L425.36 354.682L394.839 385.405L354.563 409.141L307.122 424.071L256 429.118L205.08 423.76L158.219 408.582L118.27 384.95L88.3336 354.278L69.7465 318.874L62.3945 281.058L67.8567 243.03L86.4697 207.393L116.887 176.591L157.044 152.696L204.676 137.73L256 132.998Z" fill="url(#paint2_radial_742_416)"/>
<mask id="mask0_742_416" style="mask-type:luminance" maskUnits="userSpaceOnUse" x="62" y="132" width="388" height="298">
<path d="M256 132.998L307.221 137.89L354.268 153.187L394.285 176.938L424.345 207.678L442.632 243.2L449.606 281.058L443.952 319.066L425.36 354.682L394.839 385.405L354.563 409.141L307.122 424.071L256 429.118L205.08 423.76L158.219 408.582L118.27 384.95L88.3336 354.278L69.7465 318.874L62.3945 281.058L67.8567 243.03L86.4697 207.393L116.887 176.591L157.044 152.696L204.676 137.73L256 132.998Z" fill="white"/>
</mask>
<g mask="url(#mask0_742_416)">
<path opacity="0.55" d="M93.4277 231.362L117.244 172.865L158.146 253.622L93.4277 231.362Z" fill="#FAF4D8"/>
<path opacity="0.4" d="M117.244 172.865L160.217 151.641L208.885 176.489L117.244 172.865Z" fill="#F2E3B8"/>
<path opacity="0.3" d="M160.218 151.64L254.965 131.451L208.886 176.489L160.218 151.64Z" fill="#F4E9C8"/>
<path opacity="0.25" d="M254.965 131.451L301.044 184.254L208.886 176.489L254.965 131.451Z" fill="#F7EDD5"/>
<path opacity="0.18" d="M254.965 131.451L344.535 150.087L301.044 184.254L254.965 131.451Z" fill="#F1DBAC"/>
<path opacity="0.2" d="M344.535 150.088L402.005 177.007L385.955 207.55L344.535 150.088Z" fill="#F3DFB0"/>
<path opacity="0.18" d="M344.535 150.088L301.044 184.254L385.954 207.55L344.535 150.088Z" fill="#F8EED1"/>
<path opacity="0.14" d="M402.004 177.006L443.942 221.526L385.954 207.549L402.004 177.006Z" fill="#F2D8A1"/>
<path opacity="0.26" d="M93.4282 231.361L158.146 253.621L55.6328 277.952L93.4282 231.361Z" fill="#F8EFD6"/>
<path opacity="0.22" d="M55.6328 277.954L158.146 253.623L74.7894 347.84L55.6328 277.954Z" fill="#F1DDB1"/>
<path opacity="0.18" d="M158.147 253.623L210.957 344.734L155.04 379.418L158.147 253.623Z" fill="#F3DCA9"/>
<path opacity="0.22" d="M158.146 253.622L256.518 228.773L210.957 344.732L158.146 253.622Z" fill="#F7EACC"/>
<path opacity="0.18" d="M256.518 228.773L347.641 257.246L292.76 330.238L256.518 228.773Z" fill="#EED39B"/>
<path opacity="0.14" d="M256.518 228.774L301.044 184.254L347.641 257.246L256.518 228.774Z" fill="#F4E4BC"/>
<path opacity="0.13" d="M301.044 184.254L385.954 207.549L347.641 257.246L301.044 184.254Z" fill="#F7EDD3"/>
<path opacity="0.16" d="M347.642 257.246L385.955 207.549L460.51 278.47L347.642 257.246Z" fill="#F1D49E"/>
<path opacity="0.12" d="M347.642 257.246L460.51 278.471L445.495 338.521L347.642 257.246Z" fill="#F2DDB2"/>
<path opacity="0.15" d="M292.76 330.238L347.641 257.246L445.495 338.521L292.76 330.238Z" fill="#F7EBCA"/>
<path opacity="0.12" d="M292.76 330.238L445.495 338.521L403.557 391.841L292.76 330.238Z" fill="#EFCF95"/>
<path opacity="0.11" d="M292.76 330.238L403.557 391.841L340.91 425.49L292.76 330.238Z" fill="#F2DAA7"/>
<path opacity="0.16" d="M210.956 344.733L292.76 330.238L256.518 436.361L210.956 344.733Z" fill="#F7EBC9"/>
<path opacity="0.11" d="M210.956 344.732L256.518 436.361L179.892 424.972L210.956 344.732Z" fill="#F0D59F"/>
<path opacity="0.12" d="M155.04 379.417L210.957 344.732L179.892 424.972L155.04 379.417Z" fill="#F3DDB0"/>
<path opacity="0.12" d="M155.04 379.416L179.892 424.971L116.209 390.287L155.04 379.416Z" fill="#F7EBCA"/>
<path opacity="0.1" d="M74.7891 347.84L155.04 379.418L116.209 390.289L74.7891 347.84Z" fill="#F0D6A3"/>
<path opacity="0.13" d="M55.6328 277.952L74.7894 347.838L93.4282 231.361L55.6328 277.952Z" fill="#F7EFD8"/>
<path opacity="0.16" d="M74.2715 248.445L157.628 198.23L250.305 269.152L127.082 334.896L74.2715 248.445Z" fill="#FFF8E0"/>
<path opacity="0.1" d="M238.396 154.229L354.371 154.746L343.499 268.634L247.716 267.599L238.396 154.229Z" fill="#FFF6DF"/>
<path opacity="0.09" d="M97.5703 357.674L211.474 324.025L277.746 448.267L144.167 419.795L97.5703 357.674Z" fill="#FFE3B0"/>
<path opacity="0.08" d="M266.355 305.907L436.176 218.938L456.368 305.389L304.151 422.901L266.355 305.907Z" fill="#FFD8A3"/>
<path opacity="0.1" d="M63.3994 291.412L167.466 268.635L102.748 382.523L70.6478 342.144L63.3994 291.412Z" fill="#F2E4BF"/>
</g>
<path opacity="0.14" d="M269.462 348.355C312.353 348.355 347.123 336.998 347.123 322.989C347.123 308.98 312.353 297.623 269.462 297.623C226.57 297.623 191.8 308.98 191.8 322.989C191.8 336.998 226.57 348.355 269.462 348.355Z" fill="#8B5A00"/>
<g filter="url(#filter0_d_742_416)">
<path opacity="0.98" d="M159.182 274.328L244.092 359.226L368.351 233.949" stroke="#126F0E" stroke-width="74" stroke-linecap="round" stroke-linejoin="round"/>
<path opacity="0.98" d="M159.182 266.045L244.092 350.943L368.351 225.666" stroke="url(#paint3_linear_742_416)" stroke-width="74" stroke-linecap="round" stroke-linejoin="round"/>
<path d="M159.182 256.726L244.092 341.625L368.351 216.348" stroke="url(#paint4_linear_742_416)" stroke-width="68" stroke-linecap="round" stroke-linejoin="round"/>
<path opacity="0.36" d="M159.182 256.726L244.092 341.625L368.351 216.348" stroke="#B7FA66" stroke-width="11" stroke-linecap="round" stroke-linejoin="round"/>
<path opacity="0.18" d="M244.092 341.625L368.351 216.348" stroke="#2E9408" stroke-width="8" stroke-linecap="round" stroke-linejoin="round"/>
<path opacity="0.28" d="M159.182 256.726L244.092 341.625L368.351 216.348" stroke="#3F8D09" stroke-width="2.6" stroke-linecap="round" stroke-linejoin="round"/>
</g>
</g>
<defs>
<filter id="filter0_d_742_416" x="122.182" y="182.348" width="292.169" height="224.879" filterUnits="userSpaceOnUse" color-interpolation-filters="sRGB">
<feFlood flood-opacity="0" result="BackgroundImageFix"/>
<feColorMatrix in="SourceAlpha" type="matrix" values="0 0 0 0 0 0 0 0 0 0 0 0 0 0 0 0 0 0 127 0" result="hardAlpha"/>
<feOffset dx="9" dy="11"/>
<feColorMatrix type="matrix" values="0 0 0 0 0.38 0 0 0 0 0.25 0 0 0 0 0.03 0 0 0 0.26 0"/>
<feBlend mode="normal" in2="BackgroundImageFix" result="effect1_dropShadow_742_416"/>
<feBlend mode="normal" in="SourceGraphic" in2="effect1_dropShadow_742_416" result="shape"/>
</filter>
<linearGradient id="paint0_linear_742_416" x1="13.5557" y1="91.6035" x2="13.5557" y2="508.818" gradientUnits="userSpaceOnUse">
<stop stop-color="#F4B627"/>
<stop offset="1" stop-color="#C87500"/>
</linearGradient>
<linearGradient id="paint1_linear_742_416" x1="51.1338" y1="121.525" x2="355.455" y2="517.467" gradientUnits="userSpaceOnUse">
<stop stop-color="#E49400"/>
<stop offset="0.5" stop-color="#F0A514"/>
<stop offset="1" stop-color="#D57B00"/>
</linearGradient>
<radialGradient id="paint2_radial_742_416" cx="0" cy="0" r="1" gradientUnits="userSpaceOnUse" gradientTransform="translate(209.535 209.989) scale(329.13 251.702)">
<stop stop-color="#F8F4DC"/>
<stop offset="0.58" stop-color="#F2E6BF"/>
<stop offset="1" stop-color="#EED7A6"/>
</radialGradient>
<linearGradient id="paint3_linear_742_416" x1="155.557" y1="254.656" x2="370.408" y2="373.746" gradientUnits="userSpaceOnUse">
<stop stop-color="#239D18"/>
<stop offset="0.55" stop-color="#147D10"/>
<stop offset="1" stop-color="#0D690B"/>
</linearGradient>
<linearGradient id="paint4_linear_742_416" x1="152.969" y1="202.888" x2="370.402" y2="353.042" gradientUnits="userSpaceOnUse">
<stop stop-color="#8CF128"/>
<stop offset="0.46" stop-color="#62D70F"/>
<stop offset="1" stop-color="#42AF08"/>
</linearGradient>
<clipPath id="clip0_742_416">
<rect width="512" height="512" fill="white"/>
</clipPath>
</defs>
</svg>
