<svg width="512" height="512" viewBox="0 0 512 512" fill="none" xmlns="http://www.w3.org/2000/svg">
<g clip-path="url(#clip0_744_736)">
<path fill-rule="evenodd" clip-rule="evenodd" d="M256 145.326L320.146 151.252L379.067 169.789L429.174 198.574L466.824 235.822L489.724 278.866L498.456 324.747L491.379 370.802L468.095 413.966L429.869 451.199L379.435 479.959L320.021 498.052L256 504.168L192.233 497.673L133.545 479.281L83.5155 450.646L46.0262 413.478L22.7471 370.573L13.5433 324.747L20.3813 278.667L43.6915 235.478L81.7827 198.155L132.076 169.196L191.724 151.063L256 145.326ZM191.594 108.198L131.827 126.331L81.4351 155.29L43.2661 192.612L19.9092 235.802L13.0557 281.882L22.2801 327.708L45.6059 370.613L83.1731 407.781L133.301 436.416L192.103 454.808L256 461.302L320.151 455.187L379.679 437.094L430.217 408.334L468.521 371.101L491.852 327.937L498.944 281.882L490.191 236.001L467.244 192.956L429.522 155.708L379.311 126.924L320.275 108.387L256 102.461L191.594 108.198Z" fill="url(#paint0_linear_744_736)"/>
<path opacity="0.97" d="M256 102.461L320.276 108.387L320.146 151.253L256 145.326V102.461Z" fill="#CFD5DE"/>
<path opacity="0.97" d="M320.275 108.387L379.311 126.923L379.067 169.789L320.146 151.252L320.275 108.387Z" fill="#C1C8D2"/>
<path opacity="0.97" d="M379.311 126.924L429.522 155.708L429.174 198.574L379.067 169.789L379.311 126.924Z" fill="#AEB8C5"/>
<path opacity="0.97" d="M429.521 155.707L467.244 192.955L466.824 235.82L429.174 198.572L429.521 155.707Z" fill="#98A4B4"/>
<path opacity="0.97" d="M467.244 192.955L490.192 236L489.725 278.865L466.824 235.82L467.244 192.955Z" fill="#B8C1CC"/>
<path opacity="0.97" d="M490.192 236L498.944 281.881L498.456 324.746L489.725 278.865L490.192 236Z" fill="#C7CED8"/>
<path opacity="0.97" d="M498.944 281.881L491.852 327.936L491.38 370.801L498.456 324.746L498.944 281.881Z" fill="#7A8698"/>
<path opacity="0.97" d="M491.852 327.936L468.521 371.1L468.096 413.965L491.38 370.801L491.852 327.936Z" fill="#667386"/>
<path opacity="0.97" d="M468.521 371.1L430.217 408.333L429.869 451.198L468.095 413.965L468.521 371.1Z" fill="#748194"/>
<path opacity="0.97" d="M430.217 408.334L379.679 437.094L379.436 479.959L429.869 451.199L430.217 408.334Z" fill="#8F9BAB"/>
<path opacity="0.97" d="M379.68 437.094L320.151 455.187L320.021 498.052L379.436 479.959L379.68 437.094Z" fill="#A7B0BD"/>
<path opacity="0.97" d="M320.151 455.186L256 461.301V504.166L320.021 498.051L320.151 455.186Z" fill="#6F7B8D"/>
<path opacity="0.97" d="M256 461.301L192.104 454.807L192.233 497.672L256 504.166V461.301Z" fill="#687486"/>
<path opacity="0.97" d="M192.103 454.806L133.301 436.414L133.545 479.279L192.233 497.671L192.103 454.806Z" fill="#7F8B9C"/>
<path opacity="0.97" d="M133.301 436.414L83.1738 407.779L83.5162 450.644L133.545 479.279L133.301 436.414Z" fill="#9FA9B7"/>
<path opacity="0.97" d="M83.1736 407.779L45.6064 370.611L46.0267 413.477L83.516 450.645L83.1736 407.779Z" fill="#C3CAD3"/>
<path opacity="0.97" d="M45.6061 370.612L22.2803 327.707L22.7472 370.572L46.0263 413.477L45.6061 370.612Z" fill="#808C9E"/>
<path opacity="0.97" d="M22.2801 327.707L13.0557 281.881L13.5433 324.746L22.7471 370.572L22.2801 327.707Z" fill="#687486"/>
<path opacity="0.97" d="M13.0557 281.881L19.9092 235.801L20.3813 278.666L13.5433 324.746L13.0557 281.881Z" fill="#7D899A"/>
<path opacity="0.97" d="M19.9092 235.801L43.2661 192.611L43.6915 235.477L20.3813 278.666L19.9092 235.801Z" fill="#9AA4B2"/>
<path opacity="0.97" d="M43.2666 192.612L81.4356 155.289L81.7832 198.154L43.692 235.477L43.2666 192.612Z" fill="#C8D0D9"/>
<path opacity="0.97" d="M81.4355 155.289L131.828 126.33L132.077 169.195L81.7831 198.154L81.4355 155.289Z" fill="#A4AEBB"/>
<path opacity="0.97" d="M131.827 126.33L191.594 108.197L191.724 151.062L132.076 169.195L131.827 126.33Z" fill="#8A96A5"/>
<path opacity="0.97" d="M191.595 108.198L256 102.461V145.326L191.724 151.063L191.595 108.198Z" fill="#788393"/>
<path fill-rule="evenodd" clip-rule="evenodd" d="M256 102.461L320.275 108.387L379.311 126.924L429.522 155.708L467.244 192.956L490.191 236.001L498.944 281.882L491.852 327.937L468.521 371.101L430.217 408.334L379.679 437.094L320.151 455.187L256 461.302L192.103 454.808L133.301 436.416L83.1731 407.781L45.6059 370.613L22.2801 327.708L13.0557 281.882L19.9092 235.802L43.2661 192.612L81.4351 155.29L131.827 126.331L191.594 108.198L256 102.461ZM201.582 136.115L151.075 151.437L108.491 175.91L76.2418 207.446L56.5062 243.941L50.711 282.879L58.5088 321.602L78.2133 357.853L109.959 389.264L152.32 413.458L202.007 429.004L256 434.487L310.205 429.323L360.509 414.031L403.213 389.733L435.581 358.266L455.296 321.796L461.288 282.879L453.89 244.11L434.502 207.735L402.626 176.259L360.198 151.94L310.314 136.275L256 131.27L201.582 136.115Z" fill="#E2E7ED"/>
<path opacity="0.96" d="M256 102.461L320.276 108.387L310.314 136.275L256 131.27V102.461Z" fill="#EEF1F5"/>
<path opacity="0.96" d="M320.276 108.387L379.311 126.923L360.198 151.94L310.314 136.274L320.276 108.387Z" fill="#DDE3EA"/>
<path opacity="0.96" d="M379.311 126.924L429.522 155.708L402.627 176.259L360.198 151.94L379.311 126.924Z" fill="#D1D8E1"/>
<path opacity="0.96" d="M429.522 155.707L467.245 192.955L434.503 207.733L402.627 176.257L429.522 155.707Z" fill="#D8DEE6"/>
<path opacity="0.96" d="M467.244 192.955L490.191 236L453.89 244.109L434.502 207.734L467.244 192.955Z" fill="#F2F4F7"/>
<path opacity="0.96" d="M490.192 236L498.944 281.881L461.289 282.878L453.891 244.109L490.192 236Z" fill="#E5E9EE"/>
<path opacity="0.96" d="M498.945 281.881L491.852 327.936L455.297 321.795L461.289 282.878L498.945 281.881Z" fill="#D6DDE6"/>
<path opacity="0.96" d="M491.852 327.936L468.521 371.1L435.582 358.265L455.297 321.795L491.852 327.936Z" fill="#EEF1F4"/>
<path opacity="0.96" d="M468.521 371.1L430.217 408.333L403.213 389.732L435.582 358.266L468.521 371.1Z" fill="#F6F7F9"/>
<path opacity="0.96" d="M430.217 408.334L379.68 437.093L360.51 414.031L403.213 389.732L430.217 408.334Z" fill="#E9EDF1"/>
<path opacity="0.96" d="M379.679 437.094L320.151 455.187L310.205 429.323L360.509 414.031L379.679 437.094Z" fill="#D7DDE5"/>
<path opacity="0.96" d="M320.151 455.186L256 461.302V434.486L310.205 429.322L320.151 455.186Z" fill="#CDD5DF"/>
<path opacity="0.96" d="M256 461.302L192.104 454.808L202.008 429.004L256 434.487V461.302Z" fill="#E7EBF0"/>
<path opacity="0.96" d="M192.103 454.807L133.301 436.415L152.32 413.457L202.007 429.003L192.103 454.807Z" fill="#F3F5F7"/>
<path opacity="0.96" d="M133.301 436.415L83.1738 407.78L109.96 389.264L152.321 413.458L133.301 436.415Z" fill="#E9EDF2"/>
<path opacity="0.96" d="M83.1736 407.78L45.6064 370.611L78.2138 357.852L109.96 389.263L83.1736 407.78Z" fill="#F7F8FA"/>
<path opacity="0.96" d="M45.6061 370.612L22.2803 327.707L58.5089 321.602L78.2134 357.853L45.6061 370.612Z" fill="#D8DFE7"/>
<path opacity="0.96" d="M22.2801 327.707L13.0557 281.881L50.711 282.878L58.5088 321.601L22.2801 327.707Z" fill="#CBD3DD"/>
<path opacity="0.96" d="M13.0557 281.881L19.9092 235.801L56.5062 243.94L50.711 282.878L13.0557 281.881Z" fill="#E4E9EF"/>
<path opacity="0.96" d="M19.9092 235.801L43.2661 192.611L76.2418 207.445L56.5062 243.94L19.9092 235.801Z" fill="#F6F7F9"/>
<path opacity="0.96" d="M43.2666 192.612L81.4356 155.289L108.492 175.909L76.2423 207.445L43.2666 192.612Z" fill="#E6EBF0"/>
<path opacity="0.96" d="M81.4355 155.289L131.828 126.33L151.076 151.436L108.492 175.909L81.4355 155.289Z" fill="#D4DBE4"/>
<path opacity="0.96" d="M131.827 126.33L191.594 108.197L201.581 136.114L151.075 151.436L131.827 126.33Z" fill="#C4CCD6"/>
<path opacity="0.96" d="M191.595 108.198L256 102.461V131.27L201.582 136.115L191.595 108.198Z" fill="#DCE2E9"/>
<path opacity="0.85" d="M256 102.461L320.275 108.387L379.311 126.924L429.522 155.708L467.244 192.956L490.191 236.001L498.944 281.882L491.852 327.937L468.521 371.101L430.217 408.334L379.679 437.094L320.151 455.187L256 461.302L192.103 454.808L133.301 436.416L83.1731 407.781L45.6059 370.613L22.2801 327.708L13.0557 281.882L19.9092 235.802L43.2661 192.612L81.4351 155.29L131.827 126.331L191.594 108.198L256 102.461Z" stroke="#F9FBFD" stroke-width="2.30352" stroke-linejoin="round"/>
<path opacity="0.78" d="M256 131.27L310.314 136.274L360.198 151.94L402.626 176.258L434.502 207.734L453.89 244.11L461.288 282.878L455.296 321.795L435.581 358.266L403.212 389.732L360.509 414.03L310.205 429.322L256 434.486L202.007 429.003L152.32 413.457L109.959 389.263L78.2132 357.852L58.5087 321.601L50.7109 282.878L56.5061 243.94L76.2417 207.445L108.491 175.909L151.075 151.436L201.581 136.114L256 131.27Z" stroke="#F8FAFC" stroke-width="1.77194" stroke-linejoin="round"/>
<path fill-rule="evenodd" clip-rule="evenodd" d="M256 131.27L310.314 136.274L360.198 151.94L402.626 176.258L434.502 207.734L453.89 244.11L461.288 282.878L455.296 321.795L435.581 358.266L403.212 389.732L360.509 414.03L310.205 429.322L256 434.486L202.007 429.003L152.32 413.457L109.959 389.263L78.2132 357.852L58.5087 321.601L50.7109 282.878L56.5061 243.94L76.2417 207.445L108.491 175.909L151.075 151.436L201.581 136.114L256 131.27ZM204.57 146.87L156.839 161.28L116.6 184.288L86.1198 213.945L67.4686 248.257L61.9951 284.871L69.3622 321.282L87.9876 355.37L117.985 384.902L158.017 407.655L204.974 422.269L256 427.428L307.227 422.568L354.766 408.194L395.124 385.341L425.708 355.759L444.339 321.466L450.004 284.871L443.016 248.421L424.691 214.219L394.569 184.622L354.47 161.754L307.326 147.025L256 142.315L204.57 146.87Z" fill="url(#paint1_linear_744_736)"/>
<path opacity="0.62" d="M256 142.314L307.326 147.025L354.47 161.753L394.569 184.621L424.691 214.218L443.016 248.421L450.004 284.871L444.339 321.466L425.708 355.758L395.124 385.34L354.766 408.193L307.227 422.568L256 427.428L204.974 422.269L158.017 407.655L117.985 384.902L87.9876 355.369L69.3622 321.282L61.9951 284.871L67.4686 248.256L86.1199 213.944L116.6 184.287L156.839 161.28L204.57 146.87L256 142.314Z" stroke="#8590A0" stroke-width="1.94914" stroke-linejoin="round"/>
<path opacity="0.72" d="M256 143.377L306.948 148.052L353.739 162.671L393.537 185.37L423.437 214.743L441.621 248.691L448.557 284.872L442.939 321.193L424.448 355.231L394.087 384.593L354.03 407.277L306.844 421.542L256 426.367L205.359 421.243L158.749 406.739L119.013 384.155L89.2387 354.847L70.7534 321.013L63.4434 284.872L68.8753 248.531L87.3865 214.473L117.638 185.041L157.582 162.203L204.954 147.903L256 143.377Z" stroke="white" stroke-width="0.974568" stroke-linejoin="round"/>
<path d="M256 142.314L307.326 147.025L354.47 161.753L394.569 184.621L424.691 214.218L443.016 248.421L450.004 284.871L444.339 321.466L425.708 355.758L395.124 385.34L354.766 408.193L307.227 422.568L256 427.428L204.974 422.269L158.017 407.655L117.985 384.902L87.9876 355.369L69.3622 321.282L61.9951 284.871L67.4686 248.256L86.1199 213.944L116.6 184.287L156.839 161.28L204.57 146.87L256 142.314Z" fill="url(#paint2_radial_744_736)"/>
<mask id="mask0_744_736" style="mask-type:luminance" maskUnits="userSpaceOnUse" x="61" y="142" width="390" height="286">
<path d="M256 142.314L307.326 147.025L354.47 161.753L394.569 184.621L424.691 214.218L443.016 248.421L450.004 284.871L444.339 321.466L425.708 355.758L395.124 385.34L354.766 408.193L307.227 422.568L256 427.428L204.974 422.269L158.017 407.655L117.985 384.902L87.9876 355.369L69.3622 321.282L61.9951 284.871L67.4686 248.256L86.1199 213.944L116.6 184.287L156.839 161.28L204.57 146.87L256 142.314Z" fill="white"/>
</mask>
<g mask="url(#mask0_744_736)">
<path opacity="0.55" d="M93.0928 237.022L116.958 180.699L157.944 258.455L93.0928 237.022Z" fill="#FBFCFD"/>
<path opacity="0.4" d="M116.958 180.699L160.019 160.264L208.788 184.188L116.958 180.699Z" fill="#E3E8EE"/>
<path opacity="0.3" d="M160.02 160.263L254.962 140.824L208.788 184.188L160.02 160.263Z" fill="#EFF3F6"/>
<path opacity="0.25" d="M254.962 140.824L301.137 191.664L208.788 184.188L254.962 140.824Z" fill="#F6F8FA"/>
<path opacity="0.18" d="M254.962 140.824L344.716 158.768L301.136 191.664L254.962 140.824Z" fill="#D8DFE7"/>
<path opacity="0.2" d="M344.717 158.768L402.305 184.686L386.222 214.094L344.717 158.768Z" fill="#DBE2EA"/>
<path opacity="0.18" d="M344.717 158.768L301.137 191.664L386.222 214.094L344.717 158.768Z" fill="#F5F7F9"/>
<path opacity="0.14" d="M402.305 184.686L444.329 227.551L386.222 214.093L402.305 184.686Z" fill="#C9D1DC"/>
<path opacity="0.26" d="M93.093 237.021L157.944 258.454L55.2197 281.88L93.093 237.021Z" fill="#F3F6F8"/>
<path opacity="0.22" d="M55.2197 281.881L157.944 258.455L74.4158 349.17L55.2197 281.881Z" fill="#D7DEE7"/>
<path opacity="0.18" d="M157.945 258.455L210.864 346.179L154.832 379.574L157.945 258.455Z" fill="#D4DCE5"/>
<path opacity="0.22" d="M157.944 258.454L256.519 234.529L210.863 346.178L157.944 258.454Z" fill="#EDF1F5"/>
<path opacity="0.18" d="M256.519 234.529L347.829 261.943L292.835 332.222L256.519 234.529Z" fill="#C1CAD6"/>
<path opacity="0.14" d="M256.519 234.529L301.136 191.664L347.829 261.943L256.519 234.529Z" fill="#E3E8EF"/>
<path opacity="0.13" d="M301.137 191.664L386.222 214.094L347.83 261.943L301.137 191.664Z" fill="#F7F9FB"/>
<path opacity="0.16" d="M347.83 261.943L386.222 214.094L460.931 282.379L347.83 261.943Z" fill="#CBD3DD"/>
<path opacity="0.12" d="M347.83 261.943L460.931 282.379L445.886 340.197L347.83 261.943Z" fill="#D7DEE7"/>
<path opacity="0.15" d="M292.836 332.222L347.83 261.943L445.885 340.197L292.836 332.222Z" fill="#F0F3F6"/>
<path opacity="0.12" d="M292.836 332.223L445.885 340.198L403.862 391.536L292.836 332.223Z" fill="#BEC8D4"/>
<path opacity="0.11" d="M292.836 332.223L403.862 391.536L341.085 423.934L292.836 332.223Z" fill="#D4DCE5"/>
<path opacity="0.16" d="M210.863 346.179L292.836 332.223L256.519 434.401L210.863 346.179Z" fill="#EEF2F6"/>
<path opacity="0.11" d="M210.863 346.178L256.519 434.4L179.734 423.435L210.863 346.178Z" fill="#C4CEDA"/>
<path opacity="0.12" d="M154.832 379.573L210.864 346.178L179.735 423.435L154.832 379.573Z" fill="#DAE1E9"/>
<path opacity="0.12" d="M154.832 379.574L179.735 423.436L115.921 390.041L154.832 379.574Z" fill="#F0F3F6"/>
<path opacity="0.1" d="M74.416 349.17L154.832 379.574L115.921 390.041L74.416 349.17Z" fill="#CBD4DF"/>
<path opacity="0.13" d="M55.2197 281.88L74.4158 349.169L93.093 237.021L55.2197 281.88Z" fill="#F7F9FB"/>
<path opacity="0.16" d="M73.8965 253.469L157.425 205.121L250.293 273.406L126.815 336.707L73.8965 253.469Z" fill="white"/>
<path opacity="0.1" d="M238.36 162.756L354.574 163.254L343.679 272.909L247.699 271.913L238.36 162.756Z" fill="white"/>
<path opacity="0.09" d="M97.2432 358.638L211.382 326.24L277.79 445.864L143.936 418.45L97.2432 358.638Z" fill="#E9EDF2"/>
<path opacity="0.08" d="M266.376 308.795L436.546 225.059L456.78 308.297L304.249 421.441L266.376 308.795Z" fill="#D6DDE6"/>
<path opacity="0.1" d="M63.002 294.839L167.283 272.908L102.432 382.563L70.2653 343.686L63.002 294.839Z" fill="#DFE5EC"/>
</g>
</g>
<defs>
<linearGradient id="paint0_linear_744_736" x1="13.0557" y1="102.461" x2="13.0557" y2="504.168" gradientUnits="userSpaceOnUse">
<stop stop-color="#C9D0DA"/>
<stop offset="1" stop-color="#667386"/>
</linearGradient>
<linearGradient id="paint1_linear_744_736" x1="50.7109" y1="131.27" x2="340.512" y2="523.681" gradientUnits="userSpaceOnUse">
<stop stop-color="#7F8A9A"/>
<stop offset="0.5" stop-color="#A8B1BD"/>
<stop offset="1" stop-color="#6F7B8D"/>
</linearGradient>
<radialGradient id="paint2_radial_744_736" cx="0" cy="0" r="1" gradientUnits="userSpaceOnUse" gradientTransform="translate(209.439 216.444) scale(329.808 242.346)">
<stop stop-color="#FBFCFD"/>
<stop offset="0.56" stop-color="#EDF1F5"/>
<stop offset="1" stop-color="#D5DBE4"/>
</radialGradient>
<clipPath id="clip0_744_736">
<rect width="512" height="512" fill="white"/>
</clipPath>
</defs>
</svg>
