<?xml version="1.0" standalone="no"?>
<svg xmlns="http://www.w3.org/2000/svg" version="1.1" xmlns:xlink="http://www.w3.org/1999/xlink" width="512" height="512" x="0" y="0" viewBox="0 0 512 512" style="enable-background:new 0 0 512 512" xml:space="preserve" class=""><g><path fill="#2d6c10" d="M363.295 130.207 262.528 72.028c-12.927-7.464-29.087 1.866-29.087 16.793v22.08c-36.639 5.229-70.467 22.06-97.104 48.697-32.534 32.535-50.451 75.792-50.451 121.802 0 19.911 16.142 36.053 36.053 36.053s36.053-16.142 36.053-36.053c0-46.7 32.133-86.035 75.45-97.062v20.84c0 14.927 16.159 24.257 29.087 16.793l100.768-58.178c12.926-7.464 12.926-26.123-.002-33.586zM164.057 410.128l100.768 58.178c12.927 7.464 29.087-1.866 29.087-16.793v-22.08c36.639-5.229 70.467-22.06 97.104-48.697 32.194-32.195 50.076-74.89 50.445-120.363.162-19.979-15.67-37.273-35.648-37.489-20.094-.217-36.452 16.007-36.452 36.051 0 46.701-32.133 86.035-75.45 97.062 0-24.19-26.186-39.308-47.135-27.213l-82.719 47.758c-12.927 7.464-12.927 26.123 0 33.586z" opacity="1" data-original="#00b889" class=""/><path fill="#6ebd1c" d="M347.947 101.872 247.18 43.693c-12.927-7.464-29.087 1.866-29.087 16.793v22.08c-36.639 5.229-70.467 22.06-97.104 48.697-32.534 32.534-50.451 75.791-50.451 121.801 0 19.911 16.142 36.053 36.053 36.053s36.053-16.142 36.053-36.053c0-46.7 32.133-86.035 75.45-97.062v20.84c0 14.927 16.159 24.257 29.087 16.793l100.768-58.178c12.926-7.463 12.926-26.122-.002-33.585zM148.709 381.793l100.768 58.178c12.927 7.464 29.087-1.866 29.087-16.793v-22.08c36.639-5.229 70.467-22.06 97.104-48.697 32.534-32.534 50.451-75.791 50.451-121.801 0-19.911-16.142-36.053-36.053-36.053s-36.053 16.142-36.053 36.053c0 46.7-32.133 86.035-75.45 97.062v-20.84c0-14.927-16.159-24.257-29.087-16.793l-100.768 58.178c-12.926 7.464-12.926 26.123.001 33.586z" opacity="1" data-original="#4fed9a" class=""/></g></svg>